<svg width="36" height="24" viewBox="0 0 36 24" fill="none" xmlns="http://www.w3.org/2000/svg">
<path d="M9.29486 7.46973H10.5445V15.8334H9.3847L5.13338 9.6995H5.05582V15.8334H3.79391V7.46973H4.96188L9.21718 13.6118H9.29486V7.46973Z" fill="#FCFCFC"/>
<path d="M17.6778 15.8334H12.3852V7.46973H17.6288V8.55604H13.6471V11.1043H17.3552V12.1865H13.6471V14.7471H17.6778V15.8334Z" fill="#FCFCFC"/>
<path d="M20.9521 15.8334H22.2262L23.9863 9.56883H24.0517L25.8117 15.8334H27.0818L29.4055 7.46973H28.0742L26.4488 13.9507H26.3713L24.6765 7.46973H23.3615L21.6667 13.9467H21.5891L19.9597 7.46973H18.6324L20.9521 15.8334Z" fill="#FCFCFC"/>
<path fill-rule="evenodd" clip-rule="evenodd" d="M1.91667 0.5C0.858078 0.5 0 1.35814 0 2.41667V21.5833C0 22.6419 0.858078 23.5 1.91667 23.5H33.6847C35.0136 23.5 35.9391 22.1807 35.487 20.9311L32.4908 12.6522C32.3383 12.2308 32.3383 11.7692 32.4908 11.3478L35.487 3.06891C35.9391 1.81935 35.0136 0.5 33.6847 0.5H1.91667ZM10.5445 7.46968H9.29485V13.6117H9.21717L4.96188 7.46968H3.79391V15.8333H5.05582V9.69945H5.13338L9.38469 15.8333H10.5445V7.46968ZM12.3852 15.8333H17.6778V14.747H13.6471V12.1865H17.3552V11.1043H13.6471V8.55599H17.6288V7.46968H12.3852V15.8333ZM22.2262 15.8333H20.9521L18.6324 7.46968H19.9597L21.5891 13.9466H21.6667L23.3615 7.46968H24.6765L26.3712 13.9507H26.4488L28.0742 7.46968H29.4055L27.0818 15.8333H25.8117L24.0517 9.56878H23.9863L22.2262 15.8333Z" fill="#00B272"/>
</svg>
