<?xml version="1.0" encoding="UTF-8"?>
<svg
  xmlns="http://www.w3.org/2000/svg" 
  xmlns:xlink="http://www.w3.org/1999/xlink" 
  id="body_1"
  width="709"
  height="215"
>
  <defs>
  <clipPath  id="1">
    <path clip-rule="evenodd" d="M0 0L709 0L709 215L0 215z" />
  </clipPath>
  <clipPath  id="2">
    <path clip-rule="evenodd" d="M0 214.337L0 0L708.661 0L708.661 214.337z" />
  </clipPath>
  <clipPath  id="3">
    <path clip-rule="evenodd" d="M0 214.337L0 0L708.661 0L708.661 214.337z" />
  </clipPath>
  <clipPath  id="4">
    <path clip-rule="evenodd" d="M0 214.337L0 0L708.661 0L708.661 214.337z" />
  </clipPath>
  <clipPath  id="5">
    <path clip-rule="evenodd" d="M0 214.337L0 0L708.661 0L708.661 214.337z" />
  </clipPath>
  <clipPath  id="6">
    <path clip-rule="evenodd" d="M0 214.337L0 0L708.661 0L708.661 214.337z" />
  </clipPath>
  <clipPath  id="7">
    <path clip-rule="evenodd" d="M0 214.337L0 0L708.661 0L708.661 214.337z" />
  </clipPath>
  <clipPath  id="8">
    <path clip-rule="evenodd" d="M0 214.337L0 0L708.661 0L708.661 214.337z" />
  </clipPath>
  <clipPath  id="9">
    <path clip-rule="evenodd" d="M0 214.337L0 0L708.661 0L708.661 214.337z" />
  </clipPath>
  <clipPath  id="10">
    <path clip-rule="evenodd" d="M0 214.337L0 0L708.661 0L708.661 214.337z" />
  </clipPath>
  <clipPath  id="11">
    <path clip-rule="evenodd" d="M0 214.337L0 0L708.661 0L708.661 214.337z" />
  </clipPath>
  <clipPath  id="12">
    <path clip-rule="evenodd" d="M0 214.337L0 0L708.661 0L708.661 214.337z" />
  </clipPath>
  <clipPath  id="13">
    <path clip-rule="evenodd" d="M0 214.337L0 0L708.661 0L708.661 214.337z" />
  </clipPath>
</defs>

<g transform="matrix(1.3333334 0 0 1.3333334 0 0)">
  <path d="M0 0L531.75 0L531.75 161.25L0 161.25z" stroke="none" fill="#FFFFFF" fill-rule="evenodd" />
  <g transform="matrix(0.75 0 0 -0.75 -0 161.25)" clip-path="url(#1)" >
    <path d="M0 0L709 0L709 215L0 215z" stroke="none" fill="none" />
    <path d="M0 0L709 0L709 215L0 215z" stroke="none" fill="none" />
    <path d="M0 0L709 0L709 215L0 215z" stroke="none" fill="none" />
    <path d="M0 0L709 0L709 215L0 215z" stroke="none" fill="none" />
    <path d="M0 0L709 0L709 215L0 215z" stroke="none" fill="none" />
    <path d="M0 214.337L0 0L708.661 0L708.661 214.337z" stroke="none" fill="none" />
    <path clip-path="url(#2)"  d="M0 214.337L109.913 214.337L109.913 0L0 0L0 214.337L0 214.337z" stroke="none" fill="#FFD800" fill-rule="nonzero" />
    <path clip-path="url(#3)"  d="M119.75 214.337L229.662 214.337L229.662 0L119.75 0L119.75 214.337L119.75 214.337z" stroke="none" fill="#FFD800" fill-rule="nonzero" />
    <path clip-path="url(#4)"  d="M239.5 214.337L349.412 214.337L349.412 0L239.5 0L239.5 214.337L239.5 214.337z" stroke="none" fill="#FFD800" fill-rule="nonzero" />
    <path clip-path="url(#5)"  d="M359.25 214.337L469.16 214.337L469.16 0L359.25 0L359.25 214.337L359.25 214.337z" stroke="none" fill="#FFD800" fill-rule="nonzero" />
    <path clip-path="url(#6)"  d="M478.997 214.337L588.911 214.337L588.911 0L478.997 0L478.997 214.337L478.997 214.337z" stroke="none" fill="#FFD800" fill-rule="nonzero" />
    <path clip-path="url(#7)"  d="M598.749 214.337L708.661 214.337L708.661 0L598.749 0L598.749 214.337L598.749 214.337z" stroke="none" fill="#FFD800" fill-rule="nonzero" />
    <path clip-path="url(#8)"  d="M280.562 114.806206L256.286 114.806206L256.286 35.716003L281.111 35.716003L281.111 60.761L280.122 78.77701L308.353 35.716003L332.628 35.716003L332.628 114.806206L307.804 114.806206L307.804 89.65201L308.792 71.638L280.562 114.806206L280.562 114.806206z" stroke="none" fill="#000000" fill-rule="nonzero" />
    <path clip-path="url(#9)"  d="M448.027 91.84901C 446.162 105.689 436.164 116.894104 414.195 116.894104C 394.424 116.894104 379.924 108.435005 379.924 91.629005C 379.924 61.421005 425.4 69.66 425.4 57.685013C 425.4 53.953003 421.117 51.863007 414.635 51.863007C 412.107 51.863007 409.361 52.52301 407.275 53.841003C 405.078 55.160004 403.541 57.246002 402.992 60.101013L402.992 60.101013L378.166 60.101013C 378.715 45.822006 392.336 33.629013 413.205 33.629013C 434.955 33.629013 450.225 42.527008 450.225 60.871002C 450.225 89.65201 404.75 82.293 404.75 94.156006C 404.75 97.01101 407.275 98.658005 412.986 98.658005C 415.514 98.658005 417.82 98.22001 419.688 97.23C 421.557 96.242004 422.982 94.59501 423.422 91.84901L423.422 91.84901L448.027 91.84901L448.027 91.84901z" stroke="none" fill="#000000" fill-rule="nonzero" />
    <path clip-path="url(#10)"  d="M567.776 91.84901C 565.909 105.689 555.911 116.894104 533.942 116.894104C 514.171 116.894104 499.671 108.435005 499.671 91.630005C 499.671 61.421005 545.147 69.66 545.147 57.685013C 545.147 53.953003 540.862 51.865005 534.382 51.865005C 531.856 51.865005 529.112 52.52301 527.022 53.841003C 524.827 55.160004 523.288 57.246002 522.739 60.103012L522.739 60.103012L497.913 60.103012C 498.464 45.822006 512.085 33.630005 532.956 33.630005C 554.704 33.630005 569.974 42.529007 569.974 60.871002C 569.974 89.65201 524.497 82.293 524.497 94.156006C 524.497 97.01101 527.022 98.66 532.735 98.66C 535.261 98.66 537.567 98.22001 539.437 97.23C 541.304 96.242004 542.729 94.59501 543.169 91.84901L543.169 91.84901L567.776 91.84901L567.776 91.84901z" stroke="none" fill="#000000" fill-rule="nonzero" />
    <path clip-path="url(#11)"  d="M688.401 35.716003L688.401 54.173004L648.308 54.173004L648.308 66.586L680.933 66.586L680.933 85.039L648.308 85.039L648.308 96.353004L686.864 96.353004L686.864 114.807205L622.384 114.807205L622.384 35.716003L688.401 35.716003L688.401 35.716003z" stroke="none" fill="#000000" fill-rule="nonzero" />
    <path clip-path="url(#12)"  d="M47.4834 35.716003L47.4834 60.322006L60.5542 60.322006C 83.2935 60.322006 93.3984 71.087006 93.3984 88.11301C 93.3984 104.371 82.415 114.806206 59.6763 114.806206L59.6763 114.806206L21.5596 114.806206L21.5596 35.716003L47.4834 35.716003L47.4834 35.716003zM47.4834 78.77701L47.4834 96.351006L54.8433 96.351006C 60.3354 96.351006 68.6836 95.365005 68.6836 88.005005C 68.6836 81.19301 64.2896 78.77701 58.248 78.77701L58.248 78.77701L47.4834 78.77701L47.4834 78.77701z" stroke="none" fill="#000000" fill-rule="evenodd" />
    <path clip-path="url(#13)"  d="M174.653 116.892204C 150.048 116.892204 133.243 100.746 133.243 75.92C 133.243 49.005005 149.829 33.629013 174.653 33.629013C 198.05 33.629013 216.176 48.787003 216.176 75.701004C 216.176 96.57001 202.884 116.892204 174.653 116.892204L174.653 116.892204L174.653 116.892204zM174.434 97.560005C 185.857 97.88801 190.252 86.466 190.252 75.701004C 190.252 62.629013 185.857 52.961 174.653 52.961C 162.242 52.961 159.166 65.593 159.166 75.701004C 159.166 85.69701 162.681 97.560005 174.434 97.560005L174.434 97.560005L174.434 97.560005z" stroke="none" fill="#000000" fill-rule="evenodd" />
    <path d="" stroke="none" fill="none" />
    <path d="" stroke="none" fill="none" />
    <path d="M0 0L709 0L709 215L0 215z" stroke="none" fill="none" />
    <path d="M0 0L709 0L709 215L0 215z" stroke="none" fill="none" />
  </g>
</g>
</svg>
